<?xml version="1.0" encoding="utf-8"?>
<!-- Generator: Adobe Illustrator 21.0.2, SVG Export Plug-In . SVG Version: 6.00 Build 0)  -->
<svg version="1.1" id="Layer_1" xmlns="http://www.w3.org/2000/svg" xmlns:xlink="http://www.w3.org/1999/xlink" x="0px" y="0px"
	 viewBox="0 0 200 196" style="enable-background:new 0 0 200 196;" xml:space="preserve">
<style type="text/css">
	.st0{fill:#F7F2F0;}
</style>
<g>
	<path class="st0" d="M34.8,72l93,1.3c2.5,0,4.5-2.1,4.5-4.6c0-2.5-2.1-4.5-4.6-4.5c0,0,0,0,0,0l-92.8,2.6c-1.6,0-3,0.3-3.9,0.8
		c-0.9,0.5-1.3,1.2-1.3,2.1C29.8,71,30.2,72,34.8,72z"/>
	<path class="st0" d="M166.6,80.6C166.6,80.7,166.6,80.7,166.6,80.6L166.6,80.6z"/>
	<path class="st0" d="M134.3,64.9c2.3-0.6,4.7-1.1,7.1-1.1c0.9,0,0.9,1.4,0,1.4c-2.2,0-4.4,0.4-6.5,1c0.1,0.2,0.1,0.3,0.2,0.5
		c0.1,0,0.1,0.1,0.2,0.1c1.5,1.3,3.7,1.5,5.7,1.6c0.9,0.1,0.9,1.5,0,1.4c-1.9-0.1-3.9-0.3-5.6-1.3c0,0,0,0.1,0,0.1
		c0,0.2,0,0.4,0,0.6c0,0,0,0,0,0.1c1.3,2.4,6.2,2.7,8.5,2.9c2.6,0.2,5.4,0.4,7.9-0.3c0.9-0.2,1.2,1.1,0.4,1.3
		c-3.3,0.9-7.2,0.6-10.6,0.1c-2-0.3-4.9-0.7-6.5-2.3c-0.1,0.3-0.2,0.6-0.3,0.9c3.7,4.5,12.1,4.5,17.2,3.3c0.6-0.2,1.2-0.3,1.8-0.5
		c0-2.7,1.5-5.4,3.3-7.4c-1.7-0.6-3.4-1.4-5.1-2.3c-4.9-2.7-13.2-5.3-18.1-0.9C133.9,64.4,134.1,64.7,134.3,64.9z"/>
	<path class="st0" d="M160.6,68.4C160.7,68.4,160.7,68.4,160.6,68.4C160.7,68.4,160.7,68.4,160.6,68.4
		C160.7,68.4,160.7,68.4,160.6,68.4z"/>
	<polygon class="st0" points="160.6,68.7 160.6,68.7 160.6,68.7 	"/>
	<path class="st0" d="M166.6,80.5c0.1,0,0.2,0,0.3-0.1c0.3-0.3,0.3-0.7,0.3-1.1c0-0.3-0.1-0.7-0.2-1.1
		C166.8,79,166.7,79.8,166.6,80.5z"/>
	<path class="st0" d="M127.8,91.3C127.8,91.3,127.7,91.3,127.8,91.3l-92.9,2.6c-1.6,0-3,0.3-3.9,0.8c-0.9,0.5-1.3,1.2-1.3,2.1
		c0,1.2,0.4,2.3,5,2.2l93,1.3c1.2,0,2.3-0.5,3.2-1.4c0.9-0.9,1.3-2,1.3-3.2C132.3,93.3,130.3,91.3,127.8,91.3z"/>
	<path class="st0" d="M152.8,87.8c-5.2-1.2-13.8-1.2-17.4,3.5c-0.3,0.4-0.7,0.6-1.1,0.7c0.1,0.2,0.3,0.5,0.4,0.7
		c2.4-1.8,5.4-1.7,8.4-2.2c0.9-0.1,1.3,1.2,0.4,1.3c-2.7,0.4-5.6,0.3-7.8,1.9c2.4-0.6,4.9-1.2,7.4-1c0.9,0.1,0.9,1.5,0,1.4
		c-2.3-0.2-4.6,0.3-6.9,0.9c1.6,0.4,3.2,1.2,4.8,1.4c2.7,0.4,7.5,0.6,9.1-2.1c0.5-0.8,1.7-0.1,1.2,0.7c-1.5,2.5-4.6,2.9-7.4,3
		c-1.6,0-3.1-0.1-4.7-0.5c-1.2-0.3-2.6-1-3.9-1.2c-0.1,0.8-0.3,1.7-0.6,2.4c0,0,0,0,0,0c5,4.5,13.2,1.9,18.1-0.8
		c3.7-2,7.7-3.5,11.8-3.9C161.3,91.1,157.7,89,152.8,87.8z"/>
	<path class="st0" d="M98.7,9.5C51,9.5,12.4,48.1,12.4,95.8c0,47.7,38.7,86.4,86.4,86.4s86.4-38.7,86.4-86.4
		C185.1,48.1,146.4,9.5,98.7,9.5z M29.6,65c1.7-0.9,3.8-1.2,5.3-1.2l92.8-2.6c1.2,0,2.3,0.3,3.3,0.7c0.1-0.1,0.2-0.2,0.3-0.3
		c3.5-3.1,9.5-3.8,13.9-3.1c8,1.2,13.6,8.1,22.4,6.8c1.6-0.3,3,1.6,1.7,2.9c-0.1,0.1-0.3,0.3-0.4,0.4c-0.3,1-0.9,2.1-1.6,2.9
		c-0.7,0.8-1.6,0.8-2.5,0.9c-4.4,3.6-9.1,6-15.4,6.8c-5.7,0.7-12.7-0.4-16.9-4.6c-1.3,1-2.9,1.6-4.6,1.7h0h0l-93-1.3
		c-2.1,0-7.9,0.1-8-5.2C26.8,67.7,27.7,66.1,29.6,65z M169.2,79.8c-0.1,1.6-1.6,3.3-3.4,2.7c-2.9-0.9-0.6-6.1,0.2-7.8
		c0.5-1.1,2-0.3,1.9,0.7C168.8,76.6,169.4,78.3,169.2,79.8z M168.8,118.9c-1.5,2.8-4.4,3.9-7.1,5.4c-3.6,2-6.9,4.6-10.7,6.1
		c-5.4,2.1-15.2,3.9-19.6-0.8c-1.1,0.6-2.3,0.9-3.6,0.9h0h0l-93-1.3c-2.1,0-7.9,0.1-8-5.2c0-2.1,0.9-3.7,2.8-4.8
		c1.7-0.9,3.8-1.2,5.3-1.2l92.8-2.6c0,0,0.1,0,0.1,0c2,0,3.8,0.8,5.1,2c3.5-3.4,8.6-4.4,13.3-4.7c7.5-0.4,13.9,3.1,21.1,3.6
		C168.7,116.3,169.5,117.6,168.8,118.9z M168.6,97.7c-8.8-1.4-14.4,5.6-22.4,6.8c-4.3,0.6-10.1,0-13.6-2.8c-1.3,1.1-3,1.7-4.8,1.8h0
		h0l-93-1.3c-2.1,0-7.9,0.1-8-5.2c0-3.7,3-5.9,8.1-6l92.8-2.6c0,0,0.1,0,0.1,0c1.7,0,3.3,0.6,4.5,1.5c0-0.1,0.1-0.2,0.1-0.2
		c3.9-5.1,11.8-6.6,18-5.8c8.5,1.1,14.1,5,19.9,11C171.6,96.1,170.3,97.9,168.6,97.7z"/>
	<path class="st0" d="M134.9,120.1c0,0-0.1,0.1-0.1,0.1c0.1,0.3,0.2,0.7,0.3,1c5-1.9,11.2-4.2,16.5-2.4c0.9,0.3,0.5,1.6-0.4,1.3
		c-5.1-1.6-11.1,0.7-15.9,2.5c0.1,0,0.1,0,0.2,0c1.4,0,2.7,0,4.1,0c0.9,0,0.9,1.4,0,1.4c-1.4,0-2.7,0-4.1,0c-0.1,0-0.2,0-0.3-0.1
		c0,0.3-0.1,0.5-0.2,0.8c2.6,0.6,5.2,1.4,7.9,1.2c0.9,0,0.9,1.4,0,1.4c-2.9,0.2-5.6-0.7-8.3-1.3c-0.2,0.4-0.4,0.7-0.6,1.1
		c4.2,4.1,14.3,0.9,18.5-1.3c2.6-1.4,4.9-3.2,7.5-4.6c1.2-0.7,2.6-1.2,3.8-2C154.3,117.3,142.6,112.2,134.9,120.1z"/>
	<path class="st0" d="M132.3,122.8c0-2.5-2.1-4.5-4.6-4.5c0,0,0,0,0,0L34.9,121c-1.6,0-3,0.3-3.9,0.8c-0.9,0.5-1.3,1.2-1.3,2.1
		c0,1.2,0.4,2.3,5,2.2l93,1.3c1.2,0,2.3-0.5,3.2-1.4C131.9,125.2,132.3,124,132.3,122.8z"/>
</g>
</svg>
